<?xml version="1.0" encoding="utf-8"?>
<!-- Generator: Adobe Illustrator 18.1.1, SVG Export Plug-In . SVG Version: 6.00 Build 0)  -->
<!DOCTYPE svg PUBLIC "-//W3C//DTD SVG 1.1//EN" "http://www.w3.org/Graphics/SVG/1.1/DTD/svg11.dtd">
<svg version="1.1" id="レイヤー_1" xmlns="http://www.w3.org/2000/svg" xmlns:xlink="http://www.w3.org/1999/xlink" x="0px"
	 y="0px" width="408.1px" height="290.1px" viewBox="51.9 125.5 408.1 290.1" enable-background="new 51.9 125.5 408.1 290.1"
	 xml:space="preserve">
<g>
	<path d="M174.9,305.6c4,4.3,4.3,13.6,0,15.5l-120.8-44c-2.9-4.6-2.9-9.5,0-14.9l120.8-43.7c4.3,1.9,4,11.1,0,15.5l-98.2,35.6
		L174.9,305.6z"/>
	<path d="M212.3,220.9c-0.9,0-1.9,0-1.9-0.6s0.9-4.3,1.2-5.3c0.6-2.5,2.8-5,8.7-5.3l20.4-0.9c5.6-26.8,13.7-50.8,24.5-63.5
		c12.9-15.2,32-19.8,40.6-19.8c22,0,35.7,10.6,35.7,23.1c0,2.9-2.3,10.5-11.8,10.5c-10.5,0-13.1-8.5-14.4-15.4
		c-1.3-6.2-4.8-7.9-12-7.9c-5.3,0-18,5.6-25.7,24.8c-3.7,8.4-7,18.8-9.3,30.7l-3.4,17.7H299c1.5,0,2.2,0.6,2.2,1.5
		c0,0.3-1.5,6.8-1.5,6.8c-0.6,2.5-5.3,3.7-8.1,3.7h-28.8l-0.9,5.3c-4.6,26-9.6,51-14.6,75.3c-12,58.8-18.9,82.4-27.5,94.5
		c-9.6,13.3-23.2,19.5-35.9,19.5c-21.1,0-28.6-7.3-28.6-14.2c0-5.3,2.9-11.1,11.5-11.1c6.8,0,12.9,5.8,15.5,10.1
		c1.8,2.8,3.3,5.1,7.5,5.1c4.6,0,10.7-3.9,14.1-9.3c11.4-17.8,17.2-67.6,21.2-97.9c3.1-23.2,6.5-41.8,12.7-77.1h-25.5V220.9z"/>
	<path d="M337.1,234.6c-4-4.3-4.3-13.6,0-15.5l120.8,44c2.9,4.6,2.9,9.5,0,14.9l-120.8,43.7c-4.3-1.9-4-11.1,0-15.5l98.2-35.6
		L337.1,234.6z"/>
</g>
</svg>
